<mxfile host="app.diagrams.net" agent="Mozilla/5.0 (Windows NT 10.0; Win64; x64) AppleWebKit/537.36 (KHTML, like Gecko) Chrome/134.0.0.0 Safari/537.36" version="26.1.0">
  <diagram name="Página-1" id="BpF7gvsKLSDdX1KiSY-w">
    <mxGraphModel grid="1" page="1" gridSize="10" guides="1" tooltips="1" connect="1" arrows="1" fold="1" pageScale="1" pageWidth="827" pageHeight="1169" math="0" shadow="0">
      <root>
        <mxCell id="0" />
        <mxCell id="1" parent="0" />
        <mxCell id="fnMS0nVgo87tinFCNH9b-1" value="" style="whiteSpace=wrap;html=1;aspect=fixed;" vertex="1" parent="1">
          <mxGeometry x="320" y="470" width="860" height="860" as="geometry" />
        </mxCell>
        <mxCell id="fnMS0nVgo87tinFCNH9b-2" value="usuário" style="shape=umlActor;verticalLabelPosition=bottom;verticalAlign=top;html=1;outlineConnect=0;" vertex="1" parent="1">
          <mxGeometry x="230" y="555" width="30" height="60" as="geometry" />
        </mxCell>
        <mxCell id="fnMS0nVgo87tinFCNH9b-4" value="pizzaria" style="shape=umlActor;verticalLabelPosition=bottom;verticalAlign=top;html=1;outlineConnect=0;" vertex="1" parent="1">
          <mxGeometry x="280" y="730" width="30" height="60" as="geometry" />
        </mxCell>
        <mxCell id="fnMS0nVgo87tinFCNH9b-6" value="" style="endArrow=block;endSize=16;endFill=0;html=1;rounded=0;" edge="1" parent="1">
          <mxGeometry width="160" relative="1" as="geometry">
            <mxPoint x="290" y="720" as="sourcePoint" />
            <mxPoint x="250" y="640" as="targetPoint" />
          </mxGeometry>
        </mxCell>
        <mxCell id="fnMS0nVgo87tinFCNH9b-7" value="cliente" style="shape=umlActor;verticalLabelPosition=bottom;verticalAlign=top;html=1;outlineConnect=0;" vertex="1" parent="1">
          <mxGeometry x="180" y="870" width="30" height="60" as="geometry" />
        </mxCell>
        <mxCell id="fnMS0nVgo87tinFCNH9b-8" value="" style="endArrow=block;endSize=16;endFill=0;html=1;rounded=0;" edge="1" parent="1">
          <mxGeometry width="160" relative="1" as="geometry">
            <mxPoint x="190" y="860" as="sourcePoint" />
            <mxPoint x="220" y="640" as="targetPoint" />
          </mxGeometry>
        </mxCell>
        <mxCell id="fnMS0nVgo87tinFCNH9b-9" value="&lt;font style=&quot;font-size: 24px;&quot;&gt;Entrega de Pizza&lt;/font&gt;" style="text;html=1;align=center;verticalAlign=middle;resizable=0;points=[];autosize=1;strokeColor=none;fillColor=none;" vertex="1" parent="1">
          <mxGeometry x="660" y="480" width="210" height="40" as="geometry" />
        </mxCell>
        <mxCell id="fnMS0nVgo87tinFCNH9b-11" value="realizar loguin" style="ellipse;whiteSpace=wrap;html=1;" vertex="1" parent="1">
          <mxGeometry x="430" y="585" width="110" height="55" as="geometry" />
        </mxCell>
        <mxCell id="fnMS0nVgo87tinFCNH9b-12" value="" style="endArrow=none;html=1;rounded=0;entryX=0;entryY=0.5;entryDx=0;entryDy=0;" edge="1" parent="1" target="fnMS0nVgo87tinFCNH9b-11">
          <mxGeometry width="50" height="50" relative="1" as="geometry">
            <mxPoint x="270" y="600" as="sourcePoint" />
            <mxPoint x="600" y="750" as="targetPoint" />
          </mxGeometry>
        </mxCell>
        <mxCell id="fnMS0nVgo87tinFCNH9b-13" value="visualizar as pizzas" style="ellipse;whiteSpace=wrap;html=1;" vertex="1" parent="1">
          <mxGeometry x="414" y="930" width="110" height="55" as="geometry" />
        </mxCell>
        <mxCell id="fnMS0nVgo87tinFCNH9b-14" value="" style="endArrow=none;html=1;rounded=0;entryX=0;entryY=0.5;entryDx=0;entryDy=0;" edge="1" parent="1" target="fnMS0nVgo87tinFCNH9b-13">
          <mxGeometry width="50" height="50" relative="1" as="geometry">
            <mxPoint x="220" y="920" as="sourcePoint" />
            <mxPoint x="410" y="920" as="targetPoint" />
          </mxGeometry>
        </mxCell>
        <mxCell id="fnMS0nVgo87tinFCNH9b-15" value="mostrar localização" style="ellipse;whiteSpace=wrap;html=1;" vertex="1" parent="1">
          <mxGeometry x="610" y="965" width="110" height="55" as="geometry" />
        </mxCell>
        <mxCell id="fnMS0nVgo87tinFCNH9b-16" value="adicionar ao carrinho" style="ellipse;whiteSpace=wrap;html=1;" vertex="1" parent="1">
          <mxGeometry x="414" y="1054" width="110" height="55" as="geometry" />
        </mxCell>
        <mxCell id="fnMS0nVgo87tinFCNH9b-17" value="&amp;lt;&amp;lt;extend&amp;gt;&amp;gt;" style="endArrow=open;endSize=12;dashed=1;html=1;rounded=0;exitX=0.5;exitY=1;exitDx=0;exitDy=0;entryX=0.5;entryY=0;entryDx=0;entryDy=0;" edge="1" parent="1" source="fnMS0nVgo87tinFCNH9b-13" target="fnMS0nVgo87tinFCNH9b-16">
          <mxGeometry width="160" relative="1" as="geometry">
            <mxPoint x="540" y="1010" as="sourcePoint" />
            <mxPoint x="469" y="1020" as="targetPoint" />
          </mxGeometry>
        </mxCell>
        <mxCell id="fnMS0nVgo87tinFCNH9b-18" value="include" style="endArrow=open;endSize=12;dashed=1;html=1;rounded=0;exitX=1;exitY=0.5;exitDx=0;exitDy=0;entryX=0;entryY=0.5;entryDx=0;entryDy=0;" edge="1" parent="1" source="fnMS0nVgo87tinFCNH9b-13" target="fnMS0nVgo87tinFCNH9b-15">
          <mxGeometry width="160" relative="1" as="geometry">
            <mxPoint x="479" y="955" as="sourcePoint" />
            <mxPoint x="479" y="1030" as="targetPoint" />
          </mxGeometry>
        </mxCell>
        <mxCell id="fnMS0nVgo87tinFCNH9b-19" value="fazer pagamento" style="ellipse;whiteSpace=wrap;html=1;" vertex="1" parent="1">
          <mxGeometry x="810" y="960" width="110" height="55" as="geometry" />
        </mxCell>
        <mxCell id="fnMS0nVgo87tinFCNH9b-21" value="include" style="endArrow=open;endSize=12;dashed=1;html=1;rounded=0;exitX=1;exitY=0.5;exitDx=0;exitDy=0;entryX=0;entryY=0.5;entryDx=0;entryDy=0;" edge="1" parent="1" source="fnMS0nVgo87tinFCNH9b-15" target="fnMS0nVgo87tinFCNH9b-19">
          <mxGeometry width="160" relative="1" as="geometry">
            <mxPoint x="534" y="928" as="sourcePoint" />
            <mxPoint x="620" y="958" as="targetPoint" />
          </mxGeometry>
        </mxCell>
        <mxCell id="fnMS0nVgo87tinFCNH9b-23" value="finalizar pedido" style="ellipse;whiteSpace=wrap;html=1;" vertex="1" parent="1">
          <mxGeometry x="790" y="850" width="110" height="55" as="geometry" />
        </mxCell>
        <mxCell id="fnMS0nVgo87tinFCNH9b-24" value="include" style="endArrow=open;endSize=12;dashed=1;html=1;rounded=0;exitX=0.5;exitY=0;exitDx=0;exitDy=0;entryX=0.5;entryY=1;entryDx=0;entryDy=0;" edge="1" parent="1" source="fnMS0nVgo87tinFCNH9b-19" target="fnMS0nVgo87tinFCNH9b-23">
          <mxGeometry width="160" relative="1" as="geometry">
            <mxPoint x="730" y="958" as="sourcePoint" />
            <mxPoint x="820" y="958" as="targetPoint" />
          </mxGeometry>
        </mxCell>
        <mxCell id="fnMS0nVgo87tinFCNH9b-25" value="API de pagamento" style="shape=umlActor;verticalLabelPosition=bottom;verticalAlign=top;html=1;outlineConnect=0;" vertex="1" parent="1">
          <mxGeometry x="1211" y="890" width="30" height="60" as="geometry" />
        </mxCell>
        <mxCell id="fnMS0nVgo87tinFCNH9b-26" value="" style="endArrow=none;html=1;rounded=0;exitX=1;exitY=0.5;exitDx=0;exitDy=0;" edge="1" parent="1" source="fnMS0nVgo87tinFCNH9b-19">
          <mxGeometry width="50" height="50" relative="1" as="geometry">
            <mxPoint x="850" y="890" as="sourcePoint" />
            <mxPoint x="1210" y="930" as="targetPoint" />
          </mxGeometry>
        </mxCell>
        <mxCell id="fnMS0nVgo87tinFCNH9b-27" value="receber pedido" style="ellipse;whiteSpace=wrap;html=1;" vertex="1" parent="1">
          <mxGeometry x="390" y="735" width="110" height="55" as="geometry" />
        </mxCell>
        <mxCell id="fnMS0nVgo87tinFCNH9b-28" value="" style="endArrow=none;html=1;rounded=0;entryX=0;entryY=0.5;entryDx=0;entryDy=0;" edge="1" parent="1" target="fnMS0nVgo87tinFCNH9b-27">
          <mxGeometry width="50" height="50" relative="1" as="geometry">
            <mxPoint x="300" y="759.5" as="sourcePoint" />
            <mxPoint x="490" y="759.5" as="targetPoint" />
          </mxGeometry>
        </mxCell>
        <mxCell id="fnMS0nVgo87tinFCNH9b-29" value="mototboy" style="shape=umlActor;verticalLabelPosition=bottom;verticalAlign=top;html=1;outlineConnect=0;" vertex="1" parent="1">
          <mxGeometry x="1260" y="570" width="30" height="60" as="geometry" />
        </mxCell>
        <mxCell id="fnMS0nVgo87tinFCNH9b-31" value="receber pedido" style="ellipse;whiteSpace=wrap;html=1;" vertex="1" parent="1">
          <mxGeometry x="1020" y="615" width="110" height="55" as="geometry" />
        </mxCell>
        <mxCell id="fnMS0nVgo87tinFCNH9b-32" value="" style="endArrow=none;html=1;rounded=0;exitX=1;exitY=0.5;exitDx=0;exitDy=0;" edge="1" parent="1" source="fnMS0nVgo87tinFCNH9b-31" target="fnMS0nVgo87tinFCNH9b-29">
          <mxGeometry width="50" height="50" relative="1" as="geometry">
            <mxPoint x="890" y="670" as="sourcePoint" />
            <mxPoint x="940" y="620" as="targetPoint" />
          </mxGeometry>
        </mxCell>
        <mxCell id="fnMS0nVgo87tinFCNH9b-33" value="receber localização" style="ellipse;whiteSpace=wrap;html=1;" vertex="1" parent="1">
          <mxGeometry x="1050" y="695" width="110" height="55" as="geometry" />
        </mxCell>
        <mxCell id="fnMS0nVgo87tinFCNH9b-35" value="API de mapas" style="shape=umlActor;verticalLabelPosition=bottom;verticalAlign=top;html=1;outlineConnect=0;" vertex="1" parent="1">
          <mxGeometry x="1250" y="1109" width="30" height="60" as="geometry" />
        </mxCell>
        <mxCell id="fnMS0nVgo87tinFCNH9b-38" value="" style="endArrow=none;html=1;rounded=0;exitX=0.418;exitY=0.998;exitDx=0;exitDy=0;exitPerimeter=0;" edge="1" parent="1" source="fnMS0nVgo87tinFCNH9b-15" target="fnMS0nVgo87tinFCNH9b-35">
          <mxGeometry width="50" height="50" relative="1" as="geometry">
            <mxPoint x="930" y="958" as="sourcePoint" />
            <mxPoint x="1220" y="940" as="targetPoint" />
          </mxGeometry>
        </mxCell>
        <mxCell id="fnMS0nVgo87tinFCNH9b-39" value="" style="endArrow=none;html=1;rounded=0;exitX=1;exitY=0.5;exitDx=0;exitDy=0;" edge="1" parent="1" source="fnMS0nVgo87tinFCNH9b-33">
          <mxGeometry width="50" height="50" relative="1" as="geometry">
            <mxPoint x="1140" y="653" as="sourcePoint" />
            <mxPoint x="1260" y="620" as="targetPoint" />
          </mxGeometry>
        </mxCell>
        <mxCell id="fnMS0nVgo87tinFCNH9b-40" value="" style="endArrow=none;html=1;rounded=0;exitX=0.5;exitY=1;exitDx=0;exitDy=0;entryX=0.25;entryY=0.1;entryDx=0;entryDy=0;entryPerimeter=0;" edge="1" parent="1" source="fnMS0nVgo87tinFCNH9b-33" target="fnMS0nVgo87tinFCNH9b-35">
          <mxGeometry width="50" height="50" relative="1" as="geometry">
            <mxPoint x="1080" y="750" as="sourcePoint" />
            <mxPoint x="1250" y="1070" as="targetPoint" />
          </mxGeometry>
        </mxCell>
        <mxCell id="fnMS0nVgo87tinFCNH9b-41" value="aceitar&amp;nbsp;" style="ellipse;whiteSpace=wrap;html=1;" vertex="1" parent="1">
          <mxGeometry x="827" y="640" width="110" height="55" as="geometry" />
        </mxCell>
        <mxCell id="fnMS0nVgo87tinFCNH9b-42" value="rejeitar" style="ellipse;whiteSpace=wrap;html=1;" vertex="1" parent="1">
          <mxGeometry x="880" y="720" width="110" height="55" as="geometry" />
        </mxCell>
        <mxCell id="fnMS0nVgo87tinFCNH9b-44" value="extend" style="endArrow=open;endSize=12;dashed=1;html=1;rounded=0;exitX=0;exitY=0.5;exitDx=0;exitDy=0;entryX=1;entryY=0.5;entryDx=0;entryDy=0;" edge="1" parent="1" source="fnMS0nVgo87tinFCNH9b-31" target="fnMS0nVgo87tinFCNH9b-41">
          <mxGeometry width="160" relative="1" as="geometry">
            <mxPoint x="690" y="800" as="sourcePoint" />
            <mxPoint x="850" y="800" as="targetPoint" />
          </mxGeometry>
        </mxCell>
        <mxCell id="fnMS0nVgo87tinFCNH9b-45" value="extend" style="endArrow=open;endSize=12;dashed=1;html=1;rounded=0;entryX=1;entryY=0.5;entryDx=0;entryDy=0;" edge="1" parent="1" target="fnMS0nVgo87tinFCNH9b-42">
          <mxGeometry width="160" relative="1" as="geometry">
            <mxPoint x="1020" y="643" as="sourcePoint" />
            <mxPoint x="947" y="678" as="targetPoint" />
          </mxGeometry>
        </mxCell>
        <mxCell id="fnMS0nVgo87tinFCNH9b-46" value="fazer a pizza" style="ellipse;whiteSpace=wrap;html=1;" vertex="1" parent="1">
          <mxGeometry x="550" y="680" width="110" height="55" as="geometry" />
        </mxCell>
        <mxCell id="fnMS0nVgo87tinFCNH9b-47" value="include" style="endArrow=open;endSize=12;dashed=1;html=1;rounded=0;exitX=0.973;exitY=0.364;exitDx=0;exitDy=0;exitPerimeter=0;entryX=0;entryY=1;entryDx=0;entryDy=0;" edge="1" parent="1" source="fnMS0nVgo87tinFCNH9b-27" target="fnMS0nVgo87tinFCNH9b-46">
          <mxGeometry width="160" relative="1" as="geometry">
            <mxPoint x="590" y="730" as="sourcePoint" />
            <mxPoint x="750" y="730" as="targetPoint" />
          </mxGeometry>
        </mxCell>
        <mxCell id="fnMS0nVgo87tinFCNH9b-48" value="notificar&amp;nbsp; motoboy" style="ellipse;whiteSpace=wrap;html=1;" vertex="1" parent="1">
          <mxGeometry x="660" y="600" width="110" height="55" as="geometry" />
        </mxCell>
        <mxCell id="fnMS0nVgo87tinFCNH9b-49" value="include" style="endArrow=open;endSize=12;dashed=1;html=1;rounded=0;exitX=0.704;exitY=-0.004;exitDx=0;exitDy=0;exitPerimeter=0;entryX=0.071;entryY=0.798;entryDx=0;entryDy=0;entryPerimeter=0;" edge="1" parent="1" source="fnMS0nVgo87tinFCNH9b-46" target="fnMS0nVgo87tinFCNH9b-48">
          <mxGeometry width="160" relative="1" as="geometry">
            <mxPoint x="507" y="765" as="sourcePoint" />
            <mxPoint x="576" y="737" as="targetPoint" />
          </mxGeometry>
        </mxCell>
        <mxCell id="fnMS0nVgo87tinFCNH9b-50" value="include" style="endArrow=open;endSize=12;dashed=1;html=1;rounded=0;exitX=1;exitY=0.5;exitDx=0;exitDy=0;entryX=0;entryY=0;entryDx=0;entryDy=0;" edge="1" parent="1" source="fnMS0nVgo87tinFCNH9b-48" target="fnMS0nVgo87tinFCNH9b-31">
          <mxGeometry width="160" relative="1" as="geometry">
            <mxPoint x="637" y="690" as="sourcePoint" />
            <mxPoint x="678" y="654" as="targetPoint" />
          </mxGeometry>
        </mxCell>
        <mxCell id="fnMS0nVgo87tinFCNH9b-51" value="include" style="endArrow=open;endSize=12;dashed=1;html=1;rounded=0;entryX=1;entryY=1;entryDx=0;entryDy=0;exitX=0;exitY=0.5;exitDx=0;exitDy=0;" edge="1" parent="1" source="fnMS0nVgo87tinFCNH9b-23" target="fnMS0nVgo87tinFCNH9b-27">
          <mxGeometry width="160" relative="1" as="geometry">
            <mxPoint x="700" y="850" as="sourcePoint" />
            <mxPoint x="860" y="850" as="targetPoint" />
          </mxGeometry>
        </mxCell>
        <mxCell id="fnMS0nVgo87tinFCNH9b-52" value="fazer a entrega" style="ellipse;whiteSpace=wrap;html=1;" vertex="1" parent="1">
          <mxGeometry x="670" y="715" width="110" height="55" as="geometry" />
        </mxCell>
        <mxCell id="fnMS0nVgo87tinFCNH9b-53" value="receber dinheiro" style="ellipse;whiteSpace=wrap;html=1;" vertex="1" parent="1">
          <mxGeometry x="780" y="790" width="110" height="55" as="geometry" />
        </mxCell>
        <mxCell id="fnMS0nVgo87tinFCNH9b-54" value="include" style="endArrow=open;endSize=12;dashed=1;html=1;rounded=0;exitX=0;exitY=0.5;exitDx=0;exitDy=0;entryX=0.5;entryY=0;entryDx=0;entryDy=0;" edge="1" parent="1" source="fnMS0nVgo87tinFCNH9b-41" target="fnMS0nVgo87tinFCNH9b-52">
          <mxGeometry width="160" relative="1" as="geometry">
            <mxPoint x="1030" y="653" as="sourcePoint" />
            <mxPoint x="947" y="678" as="targetPoint" />
          </mxGeometry>
        </mxCell>
        <mxCell id="fnMS0nVgo87tinFCNH9b-55" value="include" style="endArrow=open;endSize=12;dashed=1;html=1;rounded=0;exitX=1;exitY=0.5;exitDx=0;exitDy=0;entryX=0;entryY=0;entryDx=0;entryDy=0;" edge="1" parent="1" source="fnMS0nVgo87tinFCNH9b-52" target="fnMS0nVgo87tinFCNH9b-53">
          <mxGeometry width="160" relative="1" as="geometry">
            <mxPoint x="837" y="678" as="sourcePoint" />
            <mxPoint x="735" y="725" as="targetPoint" />
          </mxGeometry>
        </mxCell>
      </root>
    </mxGraphModel>
  </diagram>
</mxfile>
